<svg xmlns="http://www.w3.org/2000/svg" width="331.514" height="89" viewBox="0 0 331.514 89"><text transform="translate(63.514)" fill="#04bf79" font-size="61" font-family="SegoeUI-Light, Segoe UI" font-weight="300" letter-spacing="0.16em"><tspan x="0" y="66">E</tspan><tspan y="66" font-size="39">learning</tspan></text><path d="M6.579,11.159H2V43.213a4.593,4.593,0,0,0,4.579,4.579H38.634V43.213H6.579ZM43.213,2H15.738a4.593,4.593,0,0,0-4.579,4.579V34.055a4.593,4.593,0,0,0,4.579,4.579H43.213a4.593,4.593,0,0,0,4.579-4.579V6.579A4.593,4.593,0,0,0,43.213,2ZM24.9,30.62V10.014l13.738,10.3Z" transform="translate(-2 26.448)" fill="#04bf79"/><text transform="translate(132.514 19)" fill="#767878" font-size="18" font-family="LeelawadeeUI-Semilight, Leelawadee UI" font-weight="300" letter-spacing="0.104em"><tspan x="0" y="19">ระบบวิดีโอออนไลน์</tspan></text></svg>